<svg width="137" height="43" viewBox="0 0 137 43" fill="none" xmlns="http://www.w3.org/2000/svg">
<path d="M51.6583 33.8788C52.8566 33.8788 54.0548 34.2697 54.8537 35.0515C55.9188 35.9636 56.4514 37.1364 56.4514 38.4394C56.4514 39.7424 55.9188 40.9151 54.8537 41.8273C53.9217 42.6091 52.8566 43 51.6583 43H48.8624C48.7293 43 48.463 42.8697 48.463 42.6091V34.2697C48.463 34.1394 48.5962 33.8788 48.8624 33.8788H51.6583ZM49.9275 35.4424V41.1757C49.9275 41.306 50.0607 41.5667 50.327 41.5667H51.3921C52.4572 41.5667 53.5223 41.1757 54.188 40.3939C54.7205 39.7424 54.9868 39.0909 54.9868 38.3091C54.9868 37.5273 54.7205 36.7454 54.188 36.2242C53.5223 35.4424 52.4572 35.0515 51.3921 35.0515H50.327C50.0607 35.1818 49.9275 35.3121 49.9275 35.4424Z" fill="white"/>
<path d="M64.0403 40.9151C64.5729 40.3939 64.706 39.8727 64.706 39.2212V33.8788H66.1705V39.0909C66.1705 40.1333 65.7711 41.1757 65.1054 41.9576C64.3066 42.7394 63.3746 43 62.3095 43C61.2444 43 60.3124 42.6091 59.5136 41.9576C58.7148 41.1757 58.4485 40.1333 58.4485 39.0909V33.8788H59.913V39.3515C59.913 40.003 60.1793 40.6545 60.5787 41.0454C61.1113 41.5667 61.6438 41.8273 62.3095 41.8273C62.9752 41.697 63.5078 41.4364 64.0403 40.9151Z" fill="white"/>
<path d="M68.7002 42.4788V34.1394C68.7002 34.0091 68.8333 33.7485 69.0996 33.7485H72.5612C73.3601 33.7485 73.8926 34.0091 74.4252 34.5303C74.9577 35.0515 75.224 35.5727 75.224 36.2242C75.224 36.6151 75.0909 36.8757 74.9577 37.2667C74.8246 37.5273 74.6915 37.7879 74.5583 37.9182L74.292 38.0485C74.292 38.0485 74.4252 38.0485 74.4252 38.1788C74.4252 38.1788 74.5583 38.3091 74.8246 38.4394C74.9577 38.5697 75.0909 38.7 75.224 38.8303C75.3571 38.9606 75.4903 39.2212 75.4903 39.4818C75.6234 39.7424 75.6234 40.003 75.6234 40.2636C75.6234 41.0454 75.3571 41.5667 74.8246 42.0879C74.292 42.6091 73.4932 42.8697 72.6944 42.8697H69.0996C68.8333 42.8697 68.7002 42.7394 68.7002 42.4788ZM70.1647 35.4424V37.2667C70.1647 37.397 70.2979 37.6576 70.5641 37.6576H72.5612C72.9606 37.6576 73.2269 37.5273 73.4932 37.2667C73.7595 37.0061 73.8926 36.7454 73.8926 36.3545C73.8926 35.9636 73.7595 35.703 73.4932 35.4424C73.2269 35.1818 72.9606 35.0515 72.5612 35.0515H70.5641C70.2979 35.0515 70.1647 35.1818 70.1647 35.4424ZM72.5612 41.697C72.9606 41.697 73.3601 41.5667 73.6263 41.3061C73.8926 41.0454 74.0258 40.6545 74.0258 40.2636C74.0258 39.8727 73.8926 39.4818 73.6263 39.2212C73.3601 38.9606 72.9606 38.8303 72.5612 38.8303H70.431C70.2979 38.8303 70.0316 38.9606 70.0316 39.2212V41.5667C70.0316 41.697 70.1647 41.9576 70.431 41.9576H72.5612V41.697Z" fill="white"/>
<path d="M80.1505 33.8788H81.6151L85.4761 42.8697H84.0116L83.0796 40.6545C83.0796 40.5242 82.9465 40.3939 82.8133 40.3939H79.2186C79.0854 40.3939 78.9523 40.5242 78.9523 40.6545L78.0203 42.8697H76.5558L80.1505 33.8788ZM79.8843 39.2212H81.8813C82.1476 39.2212 82.2808 38.9606 82.1476 38.7L81.2157 36.2242C81.0825 35.9636 80.6831 35.9636 80.55 36.2242L79.4848 38.7C79.4848 38.9606 79.618 39.2212 79.8843 39.2212Z" fill="white"/>
<path d="M87.0734 33.8788H88.5379V42.8697H87.0734V33.8788Z" fill="white"/>
<path d="M13.9796 27.3636C13.0476 27.3636 12.1157 27.2333 11.1837 26.9727C10.2517 26.7121 9.58602 26.4515 8.78719 26.0606C8.12149 25.6697 7.4558 25.2788 6.92324 24.7576C6.39068 24.2364 5.99127 23.8455 5.59185 23.3242C5.32557 22.9333 5.05929 22.5424 5.05929 22.2818C4.92616 22.0212 5.05929 21.7606 5.05929 21.5C5.19243 21.2394 5.45871 20.9788 5.72499 20.7182C6.12441 20.4576 6.52382 20.3273 6.7901 20.3273C7.05638 20.3273 7.4558 20.4576 7.72207 20.7182C7.98835 20.9788 8.25463 21.2394 8.52091 21.6303C9.31974 22.4121 10.1186 23.0636 11.0505 23.4545C11.9825 23.8455 12.9145 24.1061 13.8465 24.1061C15.0447 24.1061 16.1098 23.9758 16.9087 23.5848C17.8406 23.3242 18.5063 22.803 19.0389 22.1515C19.5714 21.5 19.8377 20.7182 19.8377 19.6758C19.8377 18.8939 19.5714 18.2424 19.172 17.5909C18.7726 17.0697 18.2401 16.5485 17.4412 16.1576C16.7755 15.7667 15.9767 15.3758 15.0447 15.1152C14.2459 14.8545 13.3139 14.5939 12.3819 14.203C11.7162 13.9424 11.0505 13.6818 10.3849 13.4212C9.71916 13.1606 9.05346 12.7697 8.52091 12.3788C8.12149 12.2485 7.58894 11.7273 7.18952 11.3364C6.65696 10.8152 6.39068 10.1636 6.12441 9.51212C5.85813 8.86061 5.72499 7.94848 5.72499 7.03636C5.72499 5.60303 6.12441 4.4303 6.7901 3.38788C7.4558 2.34545 8.38777 1.43333 9.71916 0.912121C10.9174 0.260606 12.3819 0 13.9796 0C14.9116 0 15.8436 0.130303 16.6424 0.260606C17.4412 0.390909 18.1069 0.651515 18.7726 0.912121C19.4383 1.30303 19.9709 1.56364 20.3703 1.95455C20.7697 2.21515 21.1691 2.60606 21.4354 2.86667C21.9679 3.38788 22.1011 3.77879 22.2342 4.03939C22.2342 4.4303 22.1011 4.82121 21.7017 5.21212C21.3022 5.73333 20.9028 5.86364 20.5034 5.99394C20.104 5.99394 19.7046 5.86364 19.172 5.47273C18.6395 4.95151 18.1069 4.4303 17.5744 4.1697C17.0418 3.90909 16.5092 3.64848 15.8436 3.51818C15.311 3.38788 14.6453 3.38788 13.9796 3.38788C13.3139 3.38788 12.6482 3.51818 12.1157 3.64848C11.45 3.77879 10.9174 4.03939 10.518 4.3C10.1186 4.69091 9.71916 5.08182 9.58602 5.47273C9.31974 5.99394 9.1866 6.51515 9.1866 7.16667C9.1866 7.81818 9.31974 8.4697 9.71916 8.86061C10.1186 9.38182 10.6511 9.77273 11.1837 10.1636C11.8494 10.4242 12.5151 10.8152 13.3139 11.0758C14.1127 11.3364 14.9116 11.597 15.7104 11.8576C16.6424 12.1182 17.5744 12.5091 18.5063 12.9C19.4383 13.2909 20.2371 13.8121 20.9028 14.3333C21.5685 14.8545 22.2342 15.6364 22.6336 16.5485C23.0331 17.4606 23.2993 18.503 23.2993 19.8061C23.2993 21.1091 23.0331 22.1515 22.5005 23.1939C21.9679 24.1061 21.3022 25.0182 20.3703 25.6697C19.4383 26.3212 18.5063 26.8424 17.3081 27.103C16.3761 27.2333 15.311 27.3636 13.9796 27.3636Z" fill="white"/>
<path d="M39.4092 27.2333C37.5452 27.2333 35.8144 26.8424 34.2168 26.1909C32.6191 25.5394 31.1546 24.497 29.9563 23.3242C28.7581 22.1515 27.693 20.7182 27.0273 19.0242C26.3616 17.4606 25.9622 15.6364 25.9622 13.8121C25.9622 11.9879 26.3616 10.1636 27.0273 8.4697C27.693 6.77576 28.6249 5.34242 29.8232 4.1697C31.0214 2.86667 32.486 1.95454 33.9505 1.30303C35.5482 0.651514 37.279 0.260605 39.0098 0.260605C40.8737 0.260605 42.6045 0.651514 44.2022 1.30303C45.7999 1.95454 47.2644 2.99697 48.4626 4.1697C49.6609 5.34242 50.5929 6.77576 51.2586 8.4697C51.9243 10.1636 52.3237 11.8576 52.3237 13.8121C52.3237 15.6364 51.9243 17.4606 51.2586 19.0242C50.5929 20.5879 49.6609 22.0212 48.4626 23.3242C47.2644 24.6273 45.933 25.5394 44.3353 26.1909C42.8708 26.8424 41.2731 27.2333 39.4092 27.2333ZM39.2761 23.7151C40.6074 23.7151 41.9388 23.4545 43.0039 22.9333C44.2022 22.4121 45.2673 21.7606 46.0661 20.7182C46.9981 19.8061 47.6638 18.7636 48.1964 17.4606C48.7289 16.2879 48.9952 14.9848 48.9952 13.5515C48.9952 12.1182 48.7289 10.9455 48.1964 9.64242C47.6638 8.4697 46.9981 7.42727 46.0661 6.38485C45.1342 5.47273 44.2022 4.69091 43.0039 4.1697C41.8057 3.64848 40.6074 3.38788 39.2761 3.38788C37.9447 3.38788 36.7464 3.64848 35.5482 4.1697C34.3499 4.69091 33.2848 5.47273 32.486 6.38485C31.554 7.29697 30.8883 8.33939 30.3557 9.64242C29.8232 10.8152 29.5569 12.1182 29.5569 13.5515C29.5569 14.9848 29.8232 16.1576 30.3557 17.4606C30.8883 18.6333 31.554 19.8061 32.486 20.7182C33.4179 21.6303 34.3499 22.4121 35.5482 22.9333C36.6133 23.4545 37.9447 23.7151 39.2761 23.7151Z" fill="white"/>
<path d="M57.3833 26.9728C56.8507 26.9728 56.5844 26.8424 56.3182 26.7121C56.0519 26.5818 55.9187 26.3212 55.7856 25.9303C55.6525 25.6697 55.6525 25.2788 55.6525 24.8879V2.34548C55.6525 1.95457 55.6525 1.69396 55.7856 1.30305C55.9187 1.04245 56.0519 0.781839 56.3182 0.651536C56.5844 0.521233 56.9839 0.39093 57.3833 0.39093H68.1675C69.6321 0.39093 70.8303 0.651536 72.0286 1.30305C73.0937 1.95457 74.0256 2.73638 74.5582 3.90911C75.2239 4.95154 75.4902 6.25457 75.4902 7.42729C75.4902 8.07881 75.4902 8.73032 75.2239 9.38184C75.0908 10.0334 74.8245 10.5546 74.4251 11.2061C74.2919 11.3364 74.2919 11.4667 74.1588 11.597C73.7594 12.1182 73.7594 12.9 74.2919 13.4212C74.5582 13.6818 74.6913 13.9424 74.9576 14.2031C75.4902 14.8546 75.8896 15.6364 76.0227 16.5485C76.289 17.3303 76.4221 18.2424 76.4221 19.1546C76.4221 20.197 76.1559 21.2394 75.7565 22.2818C75.357 23.194 74.8245 24.1061 74.0256 24.7576C73.3599 25.4091 72.428 26.0606 71.496 26.4515C70.564 26.8424 69.4989 27.1031 68.4338 27.1031H57.3833V26.9728ZM59.1141 22.6728C59.1141 23.194 59.5135 23.7152 60.1792 23.7152H68.1675C69.2326 23.7152 70.0315 23.5849 70.8303 23.194C71.496 22.8031 72.1617 22.2818 72.5611 21.5C72.9605 20.7182 73.0937 19.8061 73.0937 18.7637C73.0937 17.8515 72.9605 17.0697 72.6943 16.5485C72.428 16.0273 72.0286 15.5061 71.6291 15.2455C71.2297 14.9849 70.6972 14.7243 70.1646 14.594C69.6321 14.4637 69.2326 14.3334 68.7001 14.3334C68.1675 14.3334 67.7681 14.3334 67.3687 14.3334H64.9722C64.4396 14.3334 64.0402 14.2031 63.9071 13.9424C63.6408 13.6818 63.5077 13.2909 63.5077 12.7697C63.5077 12.2485 63.6408 11.8576 63.9071 11.597C64.1734 11.3364 64.5728 11.2061 65.1053 11.2061H67.5018C67.9013 11.2061 68.4338 11.2061 68.9664 11.2061C69.4989 11.2061 70.0315 11.0758 70.564 10.9455C71.0966 10.8152 71.496 10.4243 71.7623 9.90305C72.0286 9.38184 72.2948 8.73032 72.2948 7.8182C72.2948 6.38487 71.8954 5.34245 71.0966 4.69093C70.2978 4.03942 69.0995 3.64851 67.2356 3.64851H60.3123C59.7798 3.64851 59.2472 4.03942 59.2472 4.69093V22.6728H59.1141Z" fill="white"/>
<path d="M82.9451 26.9727C82.4126 26.9727 82.0131 26.8424 81.7469 26.7121C81.4806 26.5818 81.3475 26.3212 81.2143 26.0606C81.0812 25.8 81.0812 25.5394 81.0812 25.1485V2.08486C81.0812 1.69395 81.0812 1.43335 81.2143 1.17274C81.3475 0.912135 81.4806 0.781832 81.7469 0.521226C82.0131 0.390923 82.4126 0.26062 82.9451 0.26062C83.4777 0.26062 83.744 0.390923 84.0102 0.521226C84.2765 0.651529 84.4096 0.912135 84.5428 1.17274C84.6759 1.43335 84.6759 1.69395 84.6759 2.08486V25.1485C84.6759 25.5394 84.6759 25.8 84.5428 26.0606C84.4096 26.3212 84.2765 26.4515 84.0102 26.7121C83.744 26.8424 83.3445 26.9727 82.9451 26.9727ZM81.88 13.4212V13.1606C81.88 12.2485 82.6788 11.4667 83.6108 11.4667H98.6555C99.5875 11.4667 100.386 12.2485 100.386 13.1606V13.4212C100.386 14.3333 99.5875 15.1152 98.6555 15.1152H83.6108C82.6788 15.1152 81.88 14.4637 81.88 13.4212ZM100.386 26.9727C99.8538 26.9727 99.5875 26.8424 99.3212 26.7121C99.0549 26.5818 98.9218 26.3212 98.7887 26.0606C98.6555 25.8 98.6555 25.5394 98.6555 25.1485V2.08486C98.6555 1.69395 98.6555 1.43335 98.7887 1.17274C98.9218 0.912135 99.0549 0.781832 99.3212 0.521226C99.5875 0.390923 99.9869 0.26062 100.386 0.26062C100.919 0.26062 101.318 0.390923 101.585 0.521226C101.851 0.651529 101.984 0.912135 102.117 1.17274C102.25 1.43335 102.25 1.69395 102.25 2.08486V25.1485C102.25 25.5394 102.25 25.8 102.117 26.0606C101.984 26.3212 101.851 26.4515 101.585 26.7121C101.318 26.8424 100.919 26.9727 100.386 26.9727Z" fill="white"/>
<path d="M131.541 24.497C131.808 24.8879 131.808 25.1485 131.808 25.4091C131.808 25.6697 131.674 25.9303 131.541 26.1909C131.408 26.4515 131.009 26.5818 130.742 26.8424C130.077 27.103 129.677 27.2333 129.278 26.9727C128.879 26.8424 128.612 26.4515 128.346 25.9303L118.627 5.60303L109.041 25.8C108.775 26.3212 108.375 26.7121 108.109 26.8424C107.709 26.9727 107.31 26.9727 106.644 26.7121C106.245 26.5818 105.979 26.3212 105.846 26.1909C105.712 25.9303 105.579 25.6697 105.712 25.4091C105.712 25.0182 105.846 24.7576 106.112 24.2364L117.295 1.43333C117.429 1.17273 117.695 0.912119 117.961 0.651513C118.227 0.52121 118.627 0.390907 118.893 0.390907C119.159 0.390907 119.293 0.390907 119.559 0.52121C119.825 0.651513 119.958 0.651513 120.091 0.912119C120.225 1.04242 120.358 1.30303 120.491 1.56363L131.541 24.497ZM112.236 14.8545C112.502 14.3333 113.035 13.9424 113.568 13.9424H123.686C124.219 13.9424 124.884 14.3333 125.018 14.8545C125.417 15.7667 124.751 16.9394 123.686 16.9394H113.568C112.502 16.9394 111.837 15.897 112.236 14.8545Z" fill="white"/>
</svg>
