<svg width="14" height="14" viewBox="0 0 14 14" fill="none" xmlns="http://www.w3.org/2000/svg">
<path fill-rule="evenodd" clip-rule="evenodd" d="M0.65868 1.26379C1.16357 0.664746 1.89271 0.279757 2.62905 0.0435046C3.09376 -0.105809 3.56087 0.144246 3.77734 0.563997L4.76791 2.48349C5.30278 3.52029 4.38894 3.73376 3.75035 4.68545C3.60884 4.89652 3.43136 5.22153 3.57946 5.47278C4.85905 7.64711 6.35266 9.1403 8.52688 10.4204C8.9784 10.6861 9.74532 9.91673 10.0337 9.62708C10.5356 9.12217 10.8438 8.88472 11.5166 9.23192L13.436 10.2225C13.8558 10.439 14.1058 10.9061 13.9565 11.3709C13.4816 12.8496 12.497 14.0202 10.8402 13.9997C6.61948 13.9482 0.0518186 7.38021 0.000241308 3.1599C-0.0081535 2.45471 0.20236 1.80534 0.65868 1.26379Z" fill="#0660B4"/>
</svg>
