<svg width="20" height="20" viewBox="0 0 20 20" fill="none" xmlns="http://www.w3.org/2000/svg">
<g opacity="0.5" clip-path="url(#clip0_267_450)">
<path d="M10 13.125C11.7259 13.125 13.125 11.7259 13.125 10C13.125 8.27411 11.7259 6.875 10 6.875C8.27411 6.875 6.875 8.27411 6.875 10C6.875 11.7259 8.27411 13.125 10 13.125Z" fill="#0660B4"/>
<path d="M14.2969 0.234375H5.70312C4.25323 0.236017 2.86318 0.812715 1.83795 1.83795C0.812715 2.86318 0.236017 4.25323 0.234375 5.70312V14.2969C0.236017 15.7468 0.812715 17.1368 1.83795 18.1621C2.86318 19.1873 4.25323 19.764 5.70312 19.7656H14.2969C15.7468 19.764 17.1368 19.1873 18.1621 18.1621C19.1873 17.1368 19.764 15.7468 19.7656 14.2969V5.70312C19.764 4.25323 19.1873 2.86318 18.1621 1.83795C17.1368 0.812715 15.7468 0.236017 14.2969 0.234375ZM10 14.6875C9.0729 14.6875 8.16662 14.4126 7.39576 13.8975C6.62491 13.3824 6.0241 12.6504 5.66931 11.7938C5.31453 10.9373 5.2217 9.9948 5.40257 9.08551C5.58344 8.17623 6.02988 7.341 6.68544 6.68544C7.341 6.02988 8.17623 5.58344 9.08551 5.40257C9.9948 5.2217 10.9373 5.31453 11.7938 5.66931C12.6504 6.0241 13.3824 6.62491 13.8975 7.39576C14.4126 8.16662 14.6875 9.0729 14.6875 10C14.6861 11.2428 14.1918 12.4342 13.313 13.313C12.4342 14.1918 11.2428 14.6861 10 14.6875ZM15.0781 6.09375C14.8463 6.09375 14.6198 6.02502 14.4271 5.89625C14.2344 5.76749 14.0842 5.58446 13.9955 5.37033C13.9068 5.1562 13.8835 4.92057 13.9288 4.69325C13.974 4.46593 14.0856 4.25712 14.2495 4.09323C14.4134 3.92934 14.6222 3.81773 14.8495 3.77252C15.0768 3.7273 15.3124 3.75051 15.5266 3.8392C15.7407 3.9279 15.9237 4.0781 16.0525 4.27082C16.1813 4.46353 16.25 4.6901 16.25 4.92188C16.25 5.23268 16.1265 5.53075 15.9068 5.75052C15.687 5.97028 15.3889 6.09375 15.0781 6.09375Z" fill="#0660B4"/>
</g>
<defs>
<clipPath id="clip0_267_450">
<rect width="20" height="20" fill="white"/>
</clipPath>
</defs>
</svg>
