<svg width="64" height="57" viewBox="0 0 64 57" fill="none" xmlns="http://www.w3.org/2000/svg">
<path d="M59.837 49.7856V32.8791C59.837 32.2898 59.3597 31.8125 58.7703 31.8125C58.181 31.8125 57.7037 32.2898 57.7037 32.8791V48.1425C53.1411 44.9346 48.664 43.4866 44.4451 43.1133V39.6387C44.4451 37.6628 46.0531 36.0522 48.0317 36.0522C50.0077 36.0522 51.6184 37.6601 51.6184 39.6387V41.7853C51.6184 42.3746 52.0957 42.8519 52.685 42.8519C53.2743 42.8519 53.7517 42.3746 53.7517 41.7853V39.6387C53.7517 36.4868 51.1864 33.9189 48.0317 33.9189C44.8798 33.9189 42.3118 36.4841 42.3118 39.6387V43.0173C40.9598 43.0093 39.6399 43.1053 38.3572 43.2813V32.8791C38.3572 32.2898 37.8799 31.8124 37.2906 31.8124C36.7012 31.8124 36.2239 32.2898 36.2239 32.8791V43.652C32.8 44.3639 29.6827 45.5799 26.9896 46.8119L26.843 46.6919C25.131 45.2919 23.379 43.8706 21.4591 42.66V39.4921C23.9843 38.9935 25.8963 36.7642 25.8963 34.095V12.3915C25.8963 9.35431 23.427 6.88504 20.3924 6.88504C17.3551 6.88504 14.8858 9.35431 14.8858 12.3915V34.0922C14.8858 36.7615 16.7978 38.9908 19.3258 39.4894V41.4547C18.5978 41.092 17.8484 40.7587 17.0591 40.4813C13.2486 39.1454 9.92881 39.508 7.2644 40.4813V29.4873C7.2644 28.898 6.78708 28.4207 6.19775 28.4207C5.60843 28.4207 5.1311 28.898 5.1311 29.4873V35.2151C3.39777 34.7431 2.13117 33.1565 2.13117 31.2926L2.13384 6.1998C2.13384 3.95716 3.95783 2.13327 6.20042 2.13327C8.44308 2.13327 10.267 3.95723 10.267 6.1998V31.2926C10.267 32.1005 10.0297 32.8818 9.58168 33.5538C9.25369 34.0445 9.38435 34.7058 9.87501 35.0338C10.3657 35.3618 11.027 35.2311 11.355 34.7405C12.0403 33.7165 12.403 32.5245 12.403 31.2926L12.4004 6.19981C12.4004 2.78124 9.61908 0 6.20048 0C2.78187 0 0.000597139 2.78124 0.000597139 6.19981V31.2926C0.000597139 34.3245 2.21124 36.8577 5.13383 37.3697V41.4496C2.04058 43.1349 0.259255 45.3722 0.224576 45.4148C-0.138084 45.8815 -0.0527525 46.5508 0.413904 46.9108C0.880561 47.2734 1.54991 47.1881 1.90988 46.7215C1.96587 46.6495 7.67777 39.4526 16.3549 42.4923C19.5655 43.6149 22.1681 45.6335 24.8533 47.8201C24.2533 48.1134 23.6826 48.4014 23.1413 48.6734L21.936 49.2734C21.408 49.5347 21.192 50.1747 21.4533 50.7027C21.7147 51.2307 22.352 51.4467 22.8827 51.1854L24.096 50.5801C32.7254 46.2576 47.1649 39.0229 62.1567 54.8599C62.3674 55.0813 62.6501 55.1933 62.9327 55.1933C63.1967 55.1933 63.4607 55.0973 63.666 54.9026C64.0954 54.4973 64.1114 53.8227 63.7087 53.3933C62.4154 52.028 61.1247 50.8414 59.8394 49.7827L59.837 49.7856ZM17.0188 34.0929V12.3922C17.0188 10.5336 18.5334 9.01897 20.392 9.01897C22.2506 9.01897 23.7626 10.5336 23.7626 12.3922V34.0929C23.7626 35.5782 22.792 36.8261 21.4587 37.2742V32.5303C21.4587 31.941 20.9814 31.4637 20.392 31.4637C19.8027 31.4637 19.3254 31.941 19.3254 32.5303V37.2742C17.9894 36.8262 17.0188 35.5755 17.0188 34.0929Z" fill="#0660B4"/>
<path d="M17.8199 50.9532C10.1639 53.5531 1.07642 54.2918 0.985627 54.2997C0.398966 54.3477 -0.0410191 54.8597 0.00430925 55.4464C0.0469752 56.0064 0.516301 56.4304 1.06563 56.4304C1.09497 56.4304 1.12163 56.4304 1.15097 56.4277C1.53229 56.3984 10.5907 55.6624 18.5054 52.9744C19.0628 52.7851 19.3614 52.1798 19.1721 51.6225C18.9828 51.0651 18.3801 50.7665 17.8201 50.9558L17.8199 50.9532Z" fill="#0660B4"/>
<path d="M63.5537 29.0758L48.6527 18.4094C48.282 18.1454 47.7807 18.1454 47.4101 18.4094L32.509 29.0758C32.229 29.2758 32.0637 29.5984 32.0637 29.9424V32.8783C32.0637 33.4677 32.541 33.945 33.1304 33.945C33.7197 33.945 34.197 33.4677 34.197 32.8783V30.4917L48.0317 20.5879L61.8664 30.4917V32.8783C61.8664 33.4677 62.3438 33.945 62.9331 33.945C63.5224 33.945 63.9997 33.4677 63.9997 32.8783V29.9424C63.9997 29.5984 63.8344 29.2758 63.5544 29.0758H63.5537Z" fill="#0660B4"/>
</svg>
