<svg width="56" height="66" viewBox="0 0 56 66" fill="none" xmlns="http://www.w3.org/2000/svg">
<path d="M21.0866 65.5494H35.0158C35.6304 65.5494 36.04 65.1397 36.04 64.5251V52.6443H44.6434C50.2765 52.6443 55.0903 48.2402 55.5 42.6071C55.5 42.2998 55.3976 41.9926 55.1927 41.7877C54.9879 41.5829 54.6806 41.4804 54.4758 41.4804H36.04V31.2384C41.3659 31.2384 45.8724 27.3464 46.7942 22.2253C47.716 22.2253 48.5354 22.9423 48.7402 23.8641C48.8426 24.3762 49.2523 24.7859 49.7644 24.7859H49.8669C50.379 24.6834 50.7886 24.1713 50.7886 23.6592C50.4814 21.7132 48.8426 20.1769 46.7942 20.1769H45.8724H29.0754V14.1341C29.0754 11.9832 30.8166 10.2421 32.9674 10.2421C35.1182 10.2421 36.8594 11.9832 36.8594 14.1341C36.8594 14.7486 37.2691 15.1583 37.8836 15.1583C38.4981 15.1583 38.9078 14.7486 38.9078 14.1341C38.9078 10.8566 36.2449 8.19367 32.9674 8.19367C31.4311 8.19367 30.0996 8.70577 29.0754 9.62756V4.4041C29.0754 3.07263 30.0996 2.04842 31.4311 2.04842C32.7626 2.04842 33.7868 3.07263 33.7868 4.4041C33.7868 5.01862 34.1965 5.42831 34.811 5.42831C35.4255 5.42831 35.8352 5.01862 35.8352 4.4041C35.8352 1.946 33.8892 0 31.4311 0C30.0996 0 28.8706 0.614525 28.0512 1.63873C27.2318 0.614525 26.0028 0 24.6713 0C22.2132 0 20.2672 1.946 20.2672 4.4041C20.2672 5.01862 20.6769 5.42831 21.2914 5.42831C21.906 5.42831 22.3156 5.01862 22.3156 4.4041C22.3156 3.07263 23.3399 2.04842 24.6713 2.04842C26.0028 2.04842 27.027 3.07263 27.027 4.4041V9.62756C26.0028 8.70577 24.6713 8.19367 23.135 8.19367C19.8575 8.19367 17.1946 10.8566 17.1946 14.1341C17.1946 14.7486 17.6043 15.1583 18.2188 15.1583C18.8333 15.1583 19.243 14.7486 19.243 14.1341C19.243 11.9832 20.9842 10.2421 23.135 10.2421C25.2858 10.2421 27.027 11.9832 27.027 14.1341V20.1769H10.1276H9.20577C7.25978 20.1769 5.51862 21.6108 5.21136 23.6592C5.10894 24.1713 5.51862 24.7859 6.13315 24.7859H6.23557C6.74767 24.7859 7.15736 24.3762 7.25978 23.8641C7.3622 22.9423 8.18156 22.2253 9.20577 22.2253C10.1276 27.3464 14.6341 31.2384 19.96 31.2384V41.4804H1.52421C1.21695 41.4804 1.0121 41.5829 0.807263 41.7877C0.602421 41.9926 0.5 42.2998 0.5 42.6071C1.0121 48.2402 5.72346 52.6443 11.3566 52.6443H19.96V64.5251C20.0624 65.1397 20.4721 65.5494 21.0866 65.5494ZM22.1108 52.6443H27.027V63.5009H22.1108V52.6443ZM33.9916 63.5009H29.0754V52.6443H33.9916V63.5009ZM29.0754 31.2384H33.9916V41.4804H29.0754V31.2384ZM27.027 41.5829H22.1108V31.3408H27.027V41.5829ZM11.3566 22.2253H44.7458C43.9264 26.2197 40.2393 29.1899 36.04 29.1899H20.0624C15.8631 29.1899 12.176 26.2197 11.3566 22.2253ZM2.75326 43.6313H53.3492C52.4274 47.6257 48.8426 50.5959 44.6434 50.5959C26.6173 50.5959 31.5335 50.5959 11.459 50.5959C7.25978 50.5959 3.67505 47.6257 2.75326 43.6313Z" fill="#0660B4"/>
<path d="M49.7605 32.0596C49.146 32.0596 48.7363 32.4693 48.7363 33.0838V35.0298C48.7363 35.6443 49.146 36.054 49.7605 36.054C50.3751 36.054 50.7847 35.6443 50.7847 35.0298V33.0838C50.7847 32.5717 50.3751 32.0596 49.7605 32.0596Z" fill="#0660B4"/>
<path d="M50.7847 27.346C50.7847 26.7315 50.2726 26.3218 49.7605 26.3218C49.146 26.3218 48.7363 26.8339 48.7363 27.346V29.3944C48.7363 29.9065 49.2484 30.4186 49.7605 30.4186C50.3751 30.4186 50.7847 29.9065 50.7847 29.3944V27.346Z" fill="#0660B4"/>
<path d="M6.34379 32.0596C5.72926 32.0596 5.31958 32.4693 5.31958 33.0838V35.0298C5.31958 35.6443 5.72926 36.054 6.34379 36.054C6.95831 36.054 7.368 35.6443 7.368 35.0298V33.0838C7.368 32.5717 6.85589 32.0596 6.34379 32.0596Z" fill="#0660B4"/>
<path d="M6.34379 26.3218C5.72926 26.3218 5.31958 26.7315 5.31958 27.346V29.3944C5.31958 30.0089 5.72926 30.4186 6.34379 30.4186C6.85589 30.4186 7.368 30.0089 7.368 29.3944V27.346C7.368 26.8339 6.95831 26.3218 6.34379 26.3218Z" fill="#0660B4"/>
</svg>
