<svg width="14" height="10" viewBox="0 0 14 10" fill="none" xmlns="http://www.w3.org/2000/svg">
<path fill-rule="evenodd" clip-rule="evenodd" d="M0.65059 0.263744C0.898718 0.0931202 1.19433 0 1.49997 0H12.5C12.8056 0 13.1012 0.093125 13.3493 0.263744L7.32118 5.32694C7.13555 5.48319 6.8643 5.48319 6.67869 5.32694L0.65059 0.263744ZM13.9387 1.07437C13.9787 1.21124 14 1.35437 14 1.5V8.5C14 8.89813 13.8419 9.27938 13.5606 9.56062C13.2794 9.84187 12.8981 10 12.5 10H1.5C1.10187 10 0.720624 9.84188 0.439376 9.56062C0.158128 9.27938 0 8.89813 0 8.5V1.5C0 1.35437 0.0212495 1.21125 0.0612495 1.07437L6.03501 6.09245C6.59314 6.5612 7.40688 6.5612 7.96493 6.09245L13.9387 1.07437Z" fill="#0660B4"/>
</svg>
