<svg width="64" height="55" viewBox="0 0 64 55" fill="none" xmlns="http://www.w3.org/2000/svg">
<path d="M63.2 52.703H57.3273V31.1233C57.3273 30.6812 56.9695 30.3233 56.5273 30.3233H51.0914V22.345C53.0331 21.0649 55.0319 22.5095 55.1211 22.5749C55.2648 22.6827 55.4328 22.7351 55.6 22.7351C55.8422 22.7351 56.0812 22.6257 56.2391 22.4179C56.5055 22.0647 56.4359 21.5632 56.0836 21.2968C55.2805 20.6897 53.643 19.9601 51.8977 20.3046C52.3781 19.6515 53.1219 19.0007 54.2555 18.7093C54.6836 18.5991 54.9414 18.1624 54.8313 17.7351C54.7211 17.3069 54.2812 17.0522 53.857 17.1593C52.0004 17.6375 50.9153 18.7931 50.2914 19.8315C49.6675 18.7931 48.5824 17.6375 46.7258 17.1593C46.3047 17.0515 45.8625 17.3069 45.7516 17.7351C45.6414 18.1624 45.8992 18.5991 46.3273 18.7093C47.4664 19.0022 48.2109 19.653 48.6906 20.3054C46.9391 19.9601 45.3031 20.6897 44.4992 21.2968C44.1484 21.5624 44.0789 22.0608 44.343 22.414C44.6078 22.7663 45.107 22.8405 45.4617 22.5749C45.5509 22.5102 47.5509 21.0658 49.4914 22.345V30.3233H41.9539V15.6915C43.8896 14.4136 45.8839 15.8489 45.982 15.9218C46.1258 16.0296 46.2945 16.0819 46.4617 16.0819C46.7039 16.0819 46.943 15.9726 47.1008 15.7647C47.3672 15.4124 47.2977 14.9108 46.9453 14.6437C46.1422 14.0366 44.5062 13.3077 42.7602 13.6507C43.2406 12.9983 43.9844 12.3476 45.1172 12.0562C45.5453 11.946 45.8031 11.5093 45.693 11.0819C45.5828 10.6538 45.1414 10.3991 44.7188 10.5062C42.8622 10.9843 41.7773 12.1399 41.1536 13.1783C40.5296 12.14 39.4445 10.9843 37.5883 10.5062C37.1656 10.3983 36.725 10.6538 36.6141 11.0819C36.5039 11.5093 36.7617 11.946 37.1898 12.0562C38.3281 12.3491 39.0727 12.9999 39.5523 13.6515C37.8047 13.3108 36.1656 14.0358 35.3617 14.6437C35.0094 14.9108 34.9398 15.4124 35.2063 15.7647C35.3641 15.9726 35.6031 16.0819 35.8453 16.0819C36.0133 16.0819 36.1828 16.0288 36.3273 15.9202C36.3489 15.9031 38.3928 14.4012 40.3539 15.6922V30.3233H32.8V4.70303C32.8 4.26084 32.4422 3.90303 32 3.90303H20.5367V0.799999C20.5367 0.357811 20.1789 0 19.7367 0C19.2945 0 18.9367 0.357811 18.9367 0.799999V3.90303H7.47266C7.03047 3.90303 6.67266 4.26084 6.67266 4.70303V52.703H0.8C0.357813 52.703 0 53.0608 0 53.503C0 53.9452 0.357813 54.303 0.8 54.303H63.2C63.6422 54.303 64 53.9452 64 53.503C64 53.0608 63.6422 52.703 63.2 52.703ZM55.7273 31.9233V52.703H51.7648V41.7257C51.7648 41.2835 51.407 40.9257 50.9648 40.9257H37.5625C37.1203 40.9257 36.7625 41.2835 36.7625 41.7257V52.703H32.8V31.9233H55.7273ZM45.1484 42.5257H50.1648V52.703H45.1484V42.5257ZM43.5484 52.703H38.3625V42.5257H43.5484V52.703ZM8.27266 5.50303H31.2V52.703H27.2375V41.7257C27.2375 41.2835 26.8797 40.9257 26.4375 40.9257H13.0352C12.593 40.9257 12.2352 41.2835 12.2352 41.7257V52.703H8.27266V5.50303ZM20.6211 42.5257H25.6375V52.703H20.6211V42.5257ZM19.0211 52.703H13.8352V42.5257H19.0211V52.703Z" fill="#0660B4"/>
<path d="M12.4028 11.0531H27.0684C27.5106 11.0531 27.8684 10.6953 27.8684 10.2531C27.8684 9.81094 27.5106 9.45312 27.0684 9.45312H12.4028C11.9606 9.45312 11.6028 9.81094 11.6028 10.2531C11.6028 10.6953 11.9606 11.0531 12.4028 11.0531Z" fill="#0660B4"/>
<path d="M12.4028 17.6034H27.0684C27.5106 17.6034 27.8684 17.2456 27.8684 16.8034C27.8684 16.3612 27.5106 16.0034 27.0684 16.0034H12.4028C11.9606 16.0034 11.6028 16.3612 11.6028 16.8034C11.6028 17.2456 11.9606 17.6034 12.4028 17.6034Z" fill="#0660B4"/>
<path d="M12.4028 24.1537H27.0684C27.5106 24.1537 27.8684 23.7959 27.8684 23.3537C27.8684 22.9115 27.5106 22.5537 27.0684 22.5537H12.4028C11.9606 22.5537 11.6028 22.9115 11.6028 23.3537C11.6028 23.7959 11.9606 24.1537 12.4028 24.1537Z" fill="#0660B4"/>
<path d="M12.4028 30.705H27.0684C27.5106 30.705 27.8684 30.3472 27.8684 29.905C27.8684 29.4628 27.5106 29.105 27.0684 29.105H12.4028C11.9606 29.105 11.6028 29.4628 11.6028 29.905C11.6028 30.3472 11.9606 30.705 12.4028 30.705Z" fill="#0660B4"/>
<path d="M12.4028 37.2553H27.0684C27.5106 37.2553 27.8684 36.8975 27.8684 36.4553C27.8684 36.0131 27.5106 35.6553 27.0684 35.6553H12.4028C11.9606 35.6553 11.6028 36.0131 11.6028 36.4553C11.6028 36.8975 11.9606 37.2553 12.4028 37.2553Z" fill="#0660B4"/>
</svg>
