<svg width="64" height="57" viewBox="0 0 64 57" fill="none" xmlns="http://www.w3.org/2000/svg">
<path d="M62.7338 30.2977H54.4098C53.7148 30.2977 53.1513 30.8528 53.1513 31.5375V42.3573H36.254L32.5525 28.7421L50.5805 23.9821C51.252 23.8059 51.6502 23.1245 51.4713 22.463L51.2114 21.5057L56.6607 20.0664C57.3322 19.8902 57.7303 19.2088 57.5514 18.5473L54.0356 5.6231C53.8568 4.96162 53.1651 4.56605 52.4936 4.7456L47.0443 6.1849L45.6137 0.91966C45.4349 0.258185 44.7432 -0.134068 44.0717 0.0421628L11.6194 8.6078C11.2955 8.69422 11.0222 8.90031 10.8535 9.18618C10.6848 9.47204 10.6409 9.8111 10.7286 10.1269L11.5755 13.2381L6.74717 14.5112C6.42325 14.5977 6.14994 14.8037 5.98124 15.0896C5.81253 15.3755 5.76867 15.7145 5.8564 16.0303L6.75732 19.341L0.933531 20.8767C0.262079 21.0529 -0.136091 21.7343 0.0427987 22.3958L2.27645 30.6128C2.36418 30.9319 2.57338 31.2011 2.86356 31.3673C3.05589 31.477 3.2752 31.5335 3.49452 31.5335C3.6025 31.5335 3.71385 31.5202 3.82182 31.4903L9.64561 29.9513L10.5465 33.262C10.6343 33.5811 10.8435 33.8503 11.1336 34.0165C11.326 34.1262 11.5453 34.1827 11.7646 34.1827C11.8726 34.1827 11.9839 34.1694 12.0919 34.1395L30.1199 29.3795L34.0744 43.912C34.2228 44.4538 34.7222 44.8327 35.2925 44.8327H53.1589V55.6491C53.1589 56.3338 53.7224 56.8889 54.4175 56.8889H62.7415C63.4366 56.8889 64 56.3338 64 55.6491V31.5298C64 30.8451 63.4365 30.29 62.7415 30.29L62.7338 30.2977ZM51.9228 7.46506L54.7874 17.9921L50.5563 19.109L47.6916 8.58193L51.9228 7.46506ZM43.5009 2.76162L45.0361 8.41242L45.1913 8.98083L18.3363 16.0709C18.009 16.1573 17.6817 16.1906 17.3612 16.1773C15.971 16.1208 14.7125 15.1867 14.3346 13.794L13.4877 10.6827L43.4972 2.76159L43.5009 2.76162ZM4.38452 28.7751L2.80207 22.9581L7.41113 21.7415L8.99357 27.5585L4.38452 28.7751ZM11.7502 28.1169L9.51659 19.9V19.8967L8.61567 16.5893L12.3576 15.602C12.3744 15.6319 12.3947 15.6619 12.4116 15.6918C12.4487 15.7616 12.4892 15.8281 12.5297 15.8945C12.5735 15.9643 12.614 16.0342 12.6612 16.1006C12.7051 16.1671 12.7523 16.2303 12.7962 16.2934C12.8434 16.3566 12.8907 16.4231 12.9413 16.4862C12.9919 16.546 13.0425 16.6059 13.0931 16.6657C13.1471 16.7255 13.1977 16.7854 13.2517 16.8452C13.3057 16.9017 13.3597 16.9549 13.4171 17.0081C13.4744 17.0646 13.5318 17.1211 13.5925 17.1743C13.6499 17.2242 13.7072 17.274 13.768 17.3206C13.8321 17.3737 13.8928 17.4236 13.9569 17.4735C14.0177 17.52 14.0784 17.5599 14.1391 17.6031C14.2066 17.6496 14.2741 17.6995 14.3449 17.7427C14.4057 17.7826 14.4698 17.8158 14.5305 17.8524C14.6048 17.8956 14.6756 17.9388 14.7532 17.9787C14.8139 18.0119 14.8781 18.0385 14.9422 18.0718C15.0198 18.1117 15.1007 18.1482 15.1817 18.1848C15.2425 18.2114 15.3066 18.2347 15.3673 18.2579C15.4517 18.2912 15.536 18.3244 15.6237 18.3543C15.6811 18.3743 15.7418 18.3909 15.8026 18.4075C15.8937 18.4341 15.9848 18.464 16.0792 18.4873C16.1332 18.5006 16.1906 18.5106 16.248 18.5238C16.3458 18.5471 16.447 18.5671 16.5449 18.5837C16.5921 18.5903 16.6427 18.597 16.6933 18.6036C16.8013 18.6202 16.9127 18.6335 17.0206 18.6435H17.0578C17.2163 18.6568 17.3783 18.6601 17.5403 18.6601C17.6718 18.6601 17.8068 18.6535 17.9384 18.6435C17.9856 18.6402 18.0363 18.6335 18.0835 18.6302C18.1915 18.6202 18.2994 18.607 18.4074 18.587C18.4547 18.5804 18.4985 18.5737 18.5458 18.5637C18.6942 18.5371 18.8461 18.5039 18.9945 18.464L45.8495 11.3739L48.4543 20.9471L48.7141 21.9011L30.6896 26.6577L12.6651 31.4177L11.7641 28.107L11.7502 28.1169ZM61.4713 54.4163H55.6643V32.7801H61.4713V54.4163Z" fill="#0660B4"/>
</svg>
