<svg width="185" height="58" viewBox="0 0 185 58" fill="none" xmlns="http://www.w3.org/2000/svg">
<g clip-path="url(#clip0_267_381)">
<path d="M69.7835 45.6973C71.3997 45.6973 73.016 46.2245 74.0935 47.2791C75.5301 48.5094 76.2485 50.0912 76.2485 51.8488C76.2485 53.6064 75.5301 55.1882 74.0935 56.4185C72.8364 57.473 71.3997 58.0003 69.7835 58.0003H66.0123C65.8327 58.0003 65.4735 57.8245 65.4735 57.473V46.2245C65.4735 46.0488 65.6531 45.6973 66.0123 45.6973H69.7835ZM67.4489 47.8064V55.5397C67.4489 55.7154 67.6285 56.067 67.9877 56.067H69.4243C70.861 56.067 72.2977 55.5397 73.1956 54.4851C73.9139 53.6064 74.2731 52.7276 74.2731 51.673C74.2731 50.6185 73.9139 49.5639 73.1956 48.8609C72.2977 47.8064 70.861 47.2791 69.4243 47.2791H67.9877C67.6285 47.4548 67.4489 47.6306 67.4489 47.8064Z" fill="#1D1D1B"/>
<path d="M86.4847 55.1882C87.2031 54.4851 87.3826 53.7821 87.3826 52.9033V45.6973H89.3581V52.7276C89.3581 54.1336 88.8193 55.5397 87.9214 56.5942C86.8439 57.6488 85.5868 58.0003 84.1502 58.0003C82.7135 58.0003 81.4564 57.473 80.3789 56.5942C79.3014 55.5397 78.9423 54.1336 78.9423 52.7276V45.6973H80.9177V53.0791C80.9177 53.9579 81.2768 54.8367 81.8156 55.3639C82.5339 56.067 83.2522 56.4185 84.1502 56.4185C85.0481 56.2427 85.7664 55.8912 86.4847 55.1882Z" fill="#1D1D1B"/>
<path d="M92.7703 57.2972V46.0488C92.7703 45.873 92.9499 45.5215 93.309 45.5215H97.9782C99.0557 45.5215 99.774 45.873 100.492 46.576C101.211 47.2791 101.57 47.9821 101.57 48.8609C101.57 49.3882 101.39 49.7397 101.211 50.2669C101.031 50.6185 100.851 50.97 100.672 51.1457L100.313 51.3215C100.313 51.3215 100.492 51.3215 100.492 51.4972C100.492 51.4972 100.672 51.673 101.031 51.8488C101.211 52.0245 101.39 52.2003 101.57 52.376C101.749 52.5518 101.929 52.9033 101.929 53.2548C102.109 53.6063 102.109 53.9578 102.109 54.3094C102.109 55.3639 101.749 56.0669 101.031 56.77C100.313 57.473 99.2352 57.8245 98.1577 57.8245H93.309C92.9499 57.8245 92.7703 57.6488 92.7703 57.2972ZM94.7457 47.8063V50.2669C94.7457 50.4427 94.9253 50.7942 95.2844 50.7942H97.9782C98.5169 50.7942 98.8761 50.6185 99.2352 50.2669C99.5944 49.9154 99.774 49.5639 99.774 49.0366C99.774 48.5094 99.5944 48.1579 99.2352 47.8063C98.8761 47.4548 98.5169 47.2791 97.9782 47.2791H95.2844C94.9253 47.2791 94.7457 47.4548 94.7457 47.8063ZM97.9782 56.2427C98.5169 56.2427 99.0557 56.0669 99.4148 55.7154C99.774 55.3639 99.9536 54.8366 99.9536 54.3094C99.9536 53.7821 99.774 53.2548 99.4148 52.9033C99.0557 52.5518 98.5169 52.376 97.9782 52.376H95.1048C94.9253 52.376 94.5661 52.5518 94.5661 52.9033V56.0669C94.5661 56.2427 94.7457 56.5942 95.1048 56.5942H97.9782V56.2427Z" fill="#1D1D1B"/>
<path d="M108.215 45.6973H110.19L115.398 57.8245H113.423L112.166 54.8367C112.166 54.6609 111.986 54.4851 111.806 54.4851H106.958C106.778 54.4851 106.599 54.6609 106.599 54.8367L105.341 57.8245H103.366L108.215 45.6973ZM107.856 52.9033H110.549C110.909 52.9033 111.088 52.5518 110.909 52.2003L109.651 48.8609C109.472 48.5094 108.933 48.5094 108.754 48.8609L107.317 52.2003C107.317 52.5518 107.496 52.9033 107.856 52.9033Z" fill="#1D1D1B"/>
<path d="M117.552 45.6973H119.527V57.8245H117.552V45.6973Z" fill="#1D1D1B"/>
<path d="M18.961 36.9091C17.7039 36.9091 16.4468 36.7333 15.1897 36.3818C13.9327 36.0303 13.0348 35.6788 11.9573 35.1515C11.0593 34.6242 10.1614 34.097 9.44309 33.3939C8.72476 32.6909 8.18602 32.1636 7.64727 31.4606C7.2881 30.9333 6.92894 30.4061 6.92894 30.0545C6.74935 29.703 6.92894 29.3515 6.92894 29C7.10852 28.6485 7.46768 28.297 7.82685 27.9455C8.3656 27.5939 8.90435 27.4182 9.26351 27.4182C9.62268 27.4182 10.1614 27.5939 10.5206 27.9455C10.8798 28.297 11.2389 28.6485 11.5981 29.1758C12.6756 30.2303 13.7531 31.1091 15.0102 31.6364C16.2672 32.1636 17.5243 32.5152 18.7814 32.5152C20.3976 32.5152 21.8343 32.3394 22.9118 31.8121C24.1689 31.4606 25.0668 30.7576 25.7851 29.8788C26.5035 29 26.8626 27.9455 26.8626 26.5394C26.8626 25.4848 26.5035 24.6061 25.9647 23.7273C25.426 23.0242 24.7076 22.3212 23.6301 21.7939C22.7322 21.2667 21.6547 20.7394 20.3976 20.3879C19.3201 20.0364 18.0631 19.6848 16.806 19.1576C15.9081 18.8061 15.0102 18.4545 14.1122 18.103C13.2143 17.7515 12.3164 17.2242 11.5981 16.697C11.0593 16.5212 10.341 15.8182 9.80226 15.2909C9.08393 14.5879 8.72476 13.7091 8.3656 12.8303C8.00643 11.9515 7.82685 10.7212 7.82685 9.49091C7.82685 7.55758 8.3656 5.97576 9.26351 4.5697C10.1614 3.16364 11.4185 1.93333 13.2143 1.2303C14.8306 0.351515 16.806 0 18.961 0C20.2181 0 21.4751 0.175758 22.5526 0.351515C23.6301 0.527273 24.5281 0.878788 25.426 1.2303C26.3239 1.75758 27.0422 2.10909 27.581 2.63636C28.1197 2.98788 28.6585 3.51515 29.0176 3.86667C29.736 4.5697 29.9155 5.09697 30.0951 5.44848C30.0951 5.97576 29.9155 6.50303 29.3768 7.0303C28.838 7.73333 28.2993 7.90909 27.7605 8.08485C27.2218 8.08485 26.683 7.90909 25.9647 7.38182C25.2464 6.67879 24.528 5.97576 23.8097 5.62424C23.0914 5.27273 22.3731 4.92121 21.4751 4.74545C20.7568 4.5697 19.8589 4.5697 18.961 4.5697C18.0631 4.5697 17.1652 4.74545 16.4468 4.92121C15.5489 5.09697 14.8306 5.44848 14.2918 5.8C13.7531 6.32727 13.2143 6.85455 13.0348 7.38182C12.6756 8.08485 12.496 8.78788 12.496 9.66667C12.496 10.5455 12.6756 11.4242 13.2143 11.9515C13.7531 12.6545 14.4714 13.1818 15.1897 13.7091C16.0877 14.0606 16.9856 14.5879 18.0631 14.9394C19.1406 15.2909 20.2181 15.6424 21.2956 15.9939C22.5526 16.3455 23.8097 16.8727 25.0668 17.4C26.3239 17.9273 27.4014 18.6303 28.2993 19.3333C29.1972 20.0364 30.0951 21.0909 30.6339 22.3212C31.1726 23.5515 31.5318 24.9576 31.5318 26.7152C31.5318 28.4727 31.1726 29.8788 30.4543 31.2848C29.736 32.5151 28.838 33.7455 27.581 34.6242C26.3239 35.503 25.0668 36.2061 23.4506 36.5576C22.1935 36.7333 20.7568 36.9091 18.961 36.9091Z" fill="#1D1D1B"/>
<path d="M53.2613 36.7334C50.7471 36.7334 48.4125 36.2061 46.2575 35.3273C44.1026 34.4485 42.1271 33.0425 40.5109 31.4607C38.8947 29.8788 37.458 27.9455 36.5601 25.6607C35.6622 23.5516 35.1234 21.091 35.1234 18.6304C35.1234 16.1697 35.6622 13.7091 36.5601 11.4243C37.458 9.13944 38.7151 7.20611 40.3313 5.62429C41.9476 3.86671 43.923 2.63641 45.8984 1.75762C48.0534 0.878835 50.388 0.351562 52.7225 0.351562C55.2367 0.351562 57.5713 0.878835 59.7263 1.75762C61.8813 2.63641 63.8567 4.04247 65.4729 5.62429C67.0892 7.20611 68.3462 9.13944 69.2441 11.4243C70.1421 13.7091 70.6808 15.994 70.6808 18.6304C70.6808 21.091 70.1421 23.5516 69.2441 25.6607C68.3462 27.7697 67.0892 29.7031 65.4729 31.4607C63.8567 33.2182 62.0608 34.4485 59.9058 35.3273C57.9304 36.2061 55.7754 36.7334 53.2613 36.7334ZM53.0817 31.9879C54.8775 31.9879 56.6733 31.6364 58.11 30.9334C59.7263 30.2304 61.1629 29.3516 62.2404 27.9455C63.4975 26.7152 64.3954 25.3091 65.1137 23.5516C65.8321 21.9697 66.1912 20.2122 66.1912 18.2788C66.1912 16.3455 65.8321 14.7637 65.1137 13.0061C64.3954 11.4243 63.4975 10.0182 62.2404 8.61217C60.9833 7.38187 59.7263 6.32732 58.11 5.62429C56.4938 4.92126 54.8775 4.56974 53.0817 4.56974C51.2859 4.56974 49.6696 4.92126 48.0534 5.62429C46.4371 6.32732 45.0005 7.38187 43.923 8.61217C42.6659 9.84247 41.768 11.2485 41.0496 13.0061C40.3313 14.5879 39.9722 16.3455 39.9722 18.2788C39.9722 20.2122 40.3313 21.794 41.0496 23.5516C41.768 25.1334 42.6659 26.7152 43.923 27.9455C45.18 29.1758 46.4371 30.2304 48.0534 30.9334C49.49 31.6364 51.2859 31.9879 53.0817 31.9879Z" fill="#1D1D1B"/>
<path d="M77.5055 36.3819C76.7871 36.3819 76.428 36.2061 76.0688 36.0304C75.7096 35.8546 75.5301 35.5031 75.3505 34.9758C75.1709 34.6243 75.1709 34.097 75.1709 33.5698V3.16371C75.1709 2.63643 75.1709 2.28492 75.3505 1.75765C75.5301 1.40613 75.7096 1.05462 76.0688 0.878859C76.428 0.703101 76.9667 0.527344 77.5055 0.527344H92.0517C94.0271 0.527344 95.6433 0.878859 97.2596 1.75765C98.6962 2.63643 99.9533 3.69098 100.672 5.2728C101.57 6.67886 101.929 8.43643 101.929 10.0183C101.929 10.897 101.929 11.7758 101.57 12.6546C101.39 13.5334 101.031 14.2364 100.492 15.1152C100.312 15.291 100.312 15.4667 100.133 15.6425C99.5942 16.3455 99.5942 17.4001 100.312 18.1031C100.672 18.4546 100.851 18.8061 101.21 19.1576C101.929 20.0364 102.467 21.091 102.647 22.3213C103.006 23.3758 103.186 24.6061 103.186 25.8364C103.186 27.2425 102.827 28.6486 102.288 30.0546C101.749 31.2849 101.031 32.5152 99.9533 33.394C99.0554 34.2728 97.7983 35.1516 96.5413 35.6789C95.2842 36.2061 93.8475 36.5576 92.4109 36.5576H77.5055V36.3819ZM79.8401 30.5819C79.8401 31.2849 80.3788 31.988 81.2767 31.988H92.0517C93.4883 31.988 94.5658 31.8122 95.6433 31.2849C96.5413 30.7576 97.4392 30.0546 97.9779 29.0001C98.5167 27.9455 98.6962 26.7152 98.6962 25.3092C98.6962 24.0789 98.5167 23.0243 98.1575 22.3213C97.7983 21.6183 97.2596 20.9152 96.7208 20.5637C96.1821 20.2122 95.4638 19.8607 94.7454 19.6849C94.0271 19.5092 93.4883 19.3334 92.77 19.3334C92.0517 19.3334 91.5129 19.3334 90.9742 19.3334H87.7417C87.0234 19.3334 86.4846 19.1576 86.305 18.8061C85.9459 18.4546 85.7663 17.9273 85.7663 17.2243C85.7663 16.5213 85.9459 15.994 86.305 15.6425C86.6642 15.291 87.203 15.1152 87.9213 15.1152H91.1538C91.6925 15.1152 92.4108 15.1152 93.1292 15.1152C93.8475 15.1152 94.5658 14.9395 95.2842 14.7637C96.0025 14.5879 96.5413 14.0607 96.9004 13.3576C97.2596 12.6546 97.6187 11.7758 97.6187 10.5455C97.6187 8.61219 97.08 7.20613 96.0025 6.32734C94.925 5.44856 93.3088 4.92128 90.7946 4.92128H81.4563C80.738 4.92128 80.0196 5.44856 80.0196 6.32734V30.5819H79.8401Z" fill="#1D1D1B"/>
<path d="M111.984 36.3819C111.266 36.3819 110.727 36.2061 110.368 36.0303C110.009 35.8546 109.829 35.5031 109.65 35.1516C109.47 34.8 109.47 34.4485 109.47 33.9213V2.81217C109.47 2.2849 109.47 1.93338 109.65 1.58187C109.829 1.23035 110.009 1.05459 110.368 0.703078C110.727 0.52732 111.266 0.351562 111.984 0.351562C112.703 0.351562 113.062 0.52732 113.421 0.703078C113.78 0.878835 113.96 1.23035 114.139 1.58187C114.319 1.93338 114.319 2.2849 114.319 2.81217V33.9213C114.319 34.4485 114.319 34.8 114.139 35.1516C113.96 35.5031 113.78 35.6788 113.421 36.0303C113.062 36.2061 112.523 36.3819 111.984 36.3819ZM110.548 18.1031V17.7516C110.548 16.5213 111.625 15.4667 112.882 15.4667H133.175C134.432 15.4667 135.51 16.5213 135.51 17.7516V18.1031C135.51 19.3334 134.432 20.3879 133.175 20.3879H112.882C111.625 20.3879 110.548 19.5091 110.548 18.1031ZM135.51 36.3819C134.791 36.3819 134.432 36.2061 134.073 36.0303C133.714 35.8546 133.534 35.5031 133.355 35.1516C133.175 34.8 133.175 34.4485 133.175 33.9213V2.81217C133.175 2.2849 133.175 1.93338 133.355 1.58187C133.534 1.23035 133.714 1.05459 134.073 0.703078C134.432 0.52732 134.971 0.351562 135.51 0.351562C136.228 0.351562 136.767 0.52732 137.126 0.703078C137.485 0.878835 137.665 1.23035 137.844 1.58187C138.024 1.93338 138.024 2.2849 138.024 2.81217V33.9213C138.024 34.4485 138.024 34.8 137.844 35.1516C137.665 35.5031 137.485 35.6788 137.126 36.0303C136.767 36.2061 136.228 36.3819 135.51 36.3819Z" fill="#1D1D1B"/>
<path d="M177.533 33.0425C177.892 33.5698 177.892 33.9213 177.892 34.2728C177.892 34.6243 177.713 34.9758 177.533 35.3273C177.354 35.6789 176.815 35.8546 176.456 36.2061C175.558 36.5576 175.019 36.7334 174.48 36.3819C173.941 36.2061 173.582 35.6789 173.223 34.9758L160.114 7.55765L147.184 34.8001C146.824 35.5031 146.286 36.0304 145.926 36.2061C145.388 36.3819 144.849 36.3819 143.951 36.0304C143.412 35.8546 143.053 35.5031 142.874 35.3273C142.694 34.9758 142.514 34.6243 142.694 34.2728C142.694 33.7455 142.874 33.394 143.233 32.691L158.318 1.9334C158.497 1.58189 158.856 1.23037 159.216 0.878859C159.575 0.703101 160.114 0.527344 160.473 0.527344C160.832 0.527344 161.011 0.527344 161.371 0.703101C161.73 0.878859 161.909 0.878859 162.089 1.23037C162.269 1.40613 162.448 1.75765 162.628 2.10916L177.533 33.0425ZM151.494 20.0364C151.853 19.3334 152.571 18.8061 153.289 18.8061H166.938C167.656 18.8061 168.554 19.3334 168.734 20.0364C169.272 21.2667 168.374 22.8486 166.938 22.8486H153.289C151.853 22.8486 150.955 21.4425 151.494 20.0364Z" fill="#1D1D1B"/>
</g>
<defs>
<clipPath id="clip0_267_381">
<rect width="184.791" height="58" fill="white" transform="translate(0.104614)"/>
</clipPath>
</defs>
</svg>
