<svg width="56" height="55" viewBox="0 0 56 55" fill="none" xmlns="http://www.w3.org/2000/svg">
<path d="M54.8125 53.625H54.4164V6.63263C54.4164 6.25263 54.1089 5.94513 53.7289 5.94513H49.4931V0.6875C49.4931 0.307495 49.1856 0 48.8056 0H32.924C32.544 0 32.2365 0.307495 32.2365 0.6875V5.94513H28C27.62 5.94513 27.3125 6.25263 27.3125 6.63263V15.642H2.27112C1.89111 15.642 1.58362 15.9495 1.58362 16.3295V53.625H1.1875C0.807495 53.625 0.5 53.9325 0.5 54.3125C0.5 54.6925 0.807495 55 1.1875 55H54.8125C55.1925 55 55.5 54.6925 55.5 54.3125C55.5 53.9325 55.1925 53.625 54.8125 53.625ZM33.6115 1.375H48.1181V5.94513H33.6115V1.375ZM53.0414 7.32013V53.625H28.6875V7.32013H53.0414ZM27.3125 34.6335H2.95862V26.5124H27.3125V34.6335ZM2.95862 36.0085H27.3125V44.1289H2.95862V36.0085ZM27.3125 17.017V25.1374H2.95862V17.017H27.3125ZM2.95862 45.5039H27.3125V53.625H2.95862V45.5039Z" fill="#0660B4"/>
<path d="M42.9045 27.6675H48.8033C49.1834 27.6675 49.4908 27.3601 49.4908 26.98V13.228C49.4908 12.848 49.1834 12.5405 48.8033 12.5405H42.9045C42.5245 12.5405 42.217 12.848 42.217 13.228V26.98C42.217 27.3601 42.5245 27.6675 42.9045 27.6675ZM43.592 13.9155H48.1158V26.2925H43.592V13.9155Z" fill="#0660B4"/>
<path d="M32.9221 27.6675H38.8216C39.2016 27.6675 39.5091 27.3601 39.5091 26.98V13.228C39.5091 12.848 39.2016 12.5405 38.8216 12.5405H32.9221C32.5421 12.5405 32.2346 12.848 32.2346 13.228V26.98C32.2346 27.3601 32.5421 27.6675 32.9221 27.6675ZM33.6096 13.9155H38.1341V26.2925H33.6096V13.9155Z" fill="#0660B4"/>
<path d="M42.9045 49.2681H48.8033C49.1834 49.2681 49.4908 48.9606 49.4908 48.5806V34.8286C49.4908 34.4486 49.1834 34.1411 48.8033 34.1411H42.9045C42.5245 34.1411 42.217 34.4486 42.217 34.8286V48.5806C42.217 48.9606 42.5245 49.2681 42.9045 49.2681ZM43.592 35.5161H48.1158V47.8931H43.592V35.5161Z" fill="#0660B4"/>
<path d="M32.9221 49.2681H38.8216C39.2016 49.2681 39.5091 48.9606 39.5091 48.5806V34.8286C39.5091 34.4486 39.2016 34.1411 38.8216 34.1411H32.9221C32.5421 34.1411 32.2346 34.4486 32.2346 34.8286V48.5806C32.2346 48.9606 32.5421 49.2681 32.9221 49.2681ZM33.6096 35.5161H38.1341V47.8931H33.6096V35.5161Z" fill="#0660B4"/>
</svg>
