<svg width="64" height="54" viewBox="0 0 64 54" fill="none" xmlns="http://www.w3.org/2000/svg">
<path d="M62.9983 53.9995H1.00142C0.448209 53.9995 0.002441 53.5511 0.002441 53.0006L-0.000244141 30.9985C-0.000244141 30.4453 0.448226 29.9995 0.998732 29.9995H25.9975C26.5507 29.9995 26.9965 30.448 26.9965 30.9985C26.9965 38.1661 32.8294 43.9987 39.9968 43.9987H62.995C63.5482 43.9987 63.994 44.4472 63.994 44.9977V52.9979C63.9993 53.5511 63.5515 53.9995 62.9983 53.9995ZM2.00032 51.9988H61.9987V45.9995H39.9994C32.0638 45.9995 25.5486 39.8068 25.0329 32.0004H1.99964L2.00032 51.9988Z" fill="#0660B4"/>
<path d="M62.9984 42.5148C61.0648 42.5148 60.0873 41.3412 59.3005 40.3986C58.5566 39.507 58.0894 39.0022 57.1387 39.0022C56.1881 39.0022 55.7208 39.5071 54.9796 40.3986C54.1928 41.3412 53.2153 42.5148 51.2817 42.5148C49.3509 42.5148 48.3707 41.3412 47.5865 40.3986C46.8427 39.507 46.3754 39.0022 45.4274 39.0022C44.4768 39.0022 44.0095 39.5071 43.2683 40.3986C42.4815 41.3412 41.504 42.5148 39.5705 42.5148C37.6369 42.5148 36.6594 41.3412 35.8726 40.3986C35.1287 39.5044 34.6614 38.9995 33.7135 38.9995C32.7655 38.9995 32.2982 39.5043 31.5544 40.3959C31.259 40.7504 30.9528 41.1183 30.5822 41.4513C30.1713 41.8192 29.5403 41.787 29.1697 41.3761C28.8017 40.9652 28.834 40.3342 29.2449 39.9635C29.508 39.7272 29.7551 39.4291 30.0183 39.1149C30.8024 38.175 31.7799 37.0015 33.7135 37.0015C35.647 37.0015 36.6245 38.175 37.4113 39.1176C38.1552 40.0092 38.6225 40.514 39.5704 40.514C40.5211 40.514 40.9884 40.0091 41.7322 39.1176C42.5164 38.175 43.4939 37.0015 45.4274 37.0015C47.361 37.0015 48.3385 38.175 49.1253 39.1176C49.8692 40.0092 50.3364 40.514 51.2844 40.514C52.2351 40.514 52.7023 40.0091 53.4462 39.1176C54.233 38.175 55.2105 37.0015 57.1441 37.0015C59.0776 37.0015 60.0551 38.175 60.8419 39.1176C61.5858 40.0092 62.0531 40.514 63.001 40.514C63.5543 40.514 64 40.9625 64 41.513C64 42.0662 63.5516 42.5148 62.9984 42.5148Z" fill="#0660B4"/>
<path d="M62.9982 37.0016C60.8901 37.0016 59.7917 35.8575 58.9109 34.9365C58.1052 34.0959 57.5252 33.489 56.2684 33.489C55.076 33.489 54.6544 34.0341 54.0126 34.8586C53.3144 35.7609 52.3503 37.0016 50.1805 37.0016C48.0724 37.0016 46.9767 35.8575 46.0959 34.9365C45.2902 34.0959 44.7102 33.489 43.4533 33.489C42.1992 33.489 41.6191 34.0959 40.8135 34.9365C39.9327 35.8549 38.837 37.0016 36.7263 37.0016C34.6182 37.0016 33.5198 35.8575 32.639 34.9365C31.8333 34.0959 31.2533 33.489 29.9965 33.489C28.8203 33.489 27.9367 34.0234 26.9727 34.829C26.5484 35.1835 25.9172 35.1271 25.5655 34.7028C25.211 34.2785 25.2674 33.6474 25.6917 33.2956C26.7605 32.404 28.1086 31.491 29.9965 31.491C32.1045 31.491 33.2029 32.635 34.0837 33.5561C34.8921 34.394 35.4721 35.0009 36.7263 35.0009C37.9804 35.0009 38.5631 34.394 39.3688 33.5534C40.2496 32.6323 41.3453 31.4883 43.4534 31.4883C45.5615 31.4883 46.6599 32.6323 47.5407 33.5534C48.3463 34.394 48.9263 35.0009 50.1804 35.0009C51.3728 35.0009 51.7971 34.4557 52.4362 33.6313C53.1371 32.7263 54.1012 31.4883 56.271 31.4883C58.3791 31.4883 59.4775 32.6323 60.3583 33.5534C61.1613 34.394 61.744 35.0009 62.9981 35.0009C63.5513 35.0009 63.9971 35.4494 63.9971 35.9999C63.9997 36.5531 63.5513 37.0016 62.9982 37.0016Z" fill="#0660B4"/>
<path d="M57.9983 49.9989H6.00215C5.44894 49.9989 5.00317 49.5505 5.00317 49C5.00317 48.4467 5.45164 48.001 6.00215 48.001H58.001C58.5542 48.001 59 48.4494 59 49C59 49.5532 58.5515 49.9989 57.9983 49.9989Z" fill="#0660B4"/>
<path d="M21.9979 32.0009H3.99971C3.4465 32.0009 3.00073 31.5525 3.00073 31.002L2.99805 11.0004C2.99805 10.4472 3.44652 10.0015 3.99702 10.0015H21.998C22.5512 10.0015 22.997 10.4499 22.997 11.0004V30.9992C22.9996 31.5524 22.5511 32.0009 21.9979 32.0009ZM4.99862 30.0002H20.9983V12.002H4.99862V30.0002Z" fill="#0660B4"/>
<path d="M24.9978 12.0021H1.00061C0.578995 12.0021 0.202999 11.7389 0.0606905 11.3415C-0.0816384 10.9467 0.0365207 10.5036 0.361463 10.2324L12.36 0.231622C12.7306 -0.0772074 13.2704 -0.0772074 13.641 0.231622L25.6396 10.2324C25.9619 10.5009 26.0827 10.9441 25.9404 11.3415C25.7954 11.7363 25.4194 12.0021 24.9978 12.0021ZM3.76084 10.0014H22.2369L12.9985 2.30234L3.76084 10.0014Z" fill="#0660B4"/>
<path d="M15.9996 32.001H10.0002C9.44699 32.001 9.00122 31.5525 9.00122 31.002V22.0029C9.00122 21.4497 9.44969 21.0039 10.0002 21.0039H15.9996C16.5528 21.0039 16.9985 21.4524 16.9985 22.0029V31.002C17.0012 31.5525 16.5527 32.001 15.9996 32.001ZM10.9992 30.0003H14.9979V22.999H10.9992V30.0003Z" fill="#0660B4"/>
</svg>
