<svg width="23" height="24" viewBox="0 0 23 24" fill="none" xmlns="http://www.w3.org/2000/svg">
<g opacity="0.5">
<g clip-path="url(#clip0_267_447)">
<path d="M9.12327 14.9777L15.3353 11.769L9.12327 8.52176V14.9777ZM11.4977 3.91406C12.9352 3.91406 14.3235 3.93331 15.6626 3.97182C17.0017 4.01032 17.9836 4.05097 18.6082 4.09375L19.5451 4.14509C19.5537 4.14509 19.6264 4.15151 19.7633 4.16434C19.9002 4.17718 19.9986 4.19001 20.0585 4.20285C20.1184 4.21568 20.219 4.23493 20.3602 4.2606C20.5013 4.28627 20.6233 4.3205 20.7259 4.36328C20.8286 4.40606 20.9484 4.46168 21.0853 4.53013C21.2222 4.59859 21.3549 4.68201 21.4832 4.78041C21.6116 4.87881 21.7356 4.99219 21.8554 5.12053C21.9068 5.17188 21.9731 5.25102 22.0544 5.35798C22.1356 5.46494 22.2597 5.71522 22.4266 6.10882C22.5934 6.50242 22.7068 6.93452 22.7667 7.40513C22.8351 7.95275 22.8886 8.53674 22.9271 9.15709C22.9656 9.77744 22.9892 10.263 22.9977 10.6138V11.1272V12.8728C23.0063 14.1135 22.9293 15.3542 22.7667 16.5949C22.7068 17.0655 22.5998 17.4912 22.4458 17.8719C22.2918 18.2527 22.1549 18.5158 22.0351 18.6613L21.8554 18.8795C21.7356 19.0078 21.6116 19.1212 21.4832 19.2196C21.3549 19.318 21.2222 19.3993 21.0853 19.4634C20.9484 19.5276 20.8286 19.5811 20.7259 19.6239C20.6233 19.6667 20.5013 19.7009 20.3602 19.7266C20.219 19.7522 20.1163 19.7715 20.0521 19.7843C19.9879 19.7972 19.8895 19.81 19.7569 19.8228C19.6243 19.8357 19.5537 19.8421 19.5451 19.8421C17.3975 20.0047 14.715 20.0859 11.4977 20.0859C9.72651 20.0688 8.18847 20.041 6.88359 20.0025C5.57872 19.964 4.72093 19.9319 4.31021 19.9062L3.68131 19.8549L3.21925 19.8036C2.91122 19.7608 2.67805 19.718 2.51975 19.6752C2.36146 19.6324 2.14327 19.5426 1.86518 19.4057C1.58709 19.2688 1.34537 19.0934 1.14001 18.8795C1.08867 18.8281 1.02236 18.749 0.941071 18.642C0.859784 18.5351 0.735714 18.2848 0.568862 17.8912C0.402009 17.4976 0.288635 17.0655 0.228739 16.5949C0.160286 16.0472 0.106808 15.4633 0.0683036 14.8429C0.0297991 14.2226 0.0062686 13.737 -0.00228795 13.3862V12.8728V11.1272C-0.0108445 9.88653 0.0661644 8.64583 0.228739 7.40513C0.288635 6.93452 0.395591 6.50883 0.549609 6.12807C0.703627 5.7473 0.840532 5.48419 0.960324 5.33873L1.14001 5.12053C1.2598 4.99219 1.38387 4.87881 1.51222 4.78041C1.64057 4.68201 1.7732 4.59859 1.9101 4.53013C2.04701 4.46168 2.1668 4.40606 2.26948 4.36328C2.37215 4.3205 2.49408 4.28627 2.63527 4.2606C2.77645 4.23493 2.87699 4.21568 2.93689 4.20285C2.99678 4.19001 3.09518 4.17718 3.23209 4.16434C3.36899 4.15151 3.44172 4.14509 3.45028 4.14509C5.59797 3.99107 8.28045 3.91406 11.4977 3.91406Z" fill="#0660B4"/>
</g>
</g>
<defs>
<clipPath id="clip0_267_447">
<rect width="23" height="23" fill="white" transform="matrix(1 0 0 -1 0 23.5)"/>
</clipPath>
</defs>
</svg>
