<svg width="71" height="71" viewBox="0 0 71 71" fill="none" xmlns="http://www.w3.org/2000/svg">
<circle cx="35.5" cy="35.5" r="35.5" fill="#0660B4"/>
<path d="M37.9182 49.7585L40.1753 24.3379C40.2816 22.74 39.9785 21.1441 39.3035 19.6938L38.0087 16.2324C37.2432 14.5892 34.9054 14.5892 34.134 16.2324L32.8392 19.6938C32.1642 21.1441 31.8612 22.742 31.9674 24.3379L34.1793 49.2447L29.6296 53.7943C29.3167 54.1072 29.1416 54.5303 29.1416 54.9671V55.3706C29.1416 55.7189 29.5037 55.9491 29.8225 55.8035L34.7696 53.5208C35.0058 53.8239 35.3797 54.0187 35.7929 54.0187H36.3518C36.6745 54.0187 36.9717 53.8986 37.2038 53.7019L41.7634 55.8074C42.0802 55.9531 42.4442 55.7209 42.4442 55.3745V54.9711C42.4442 54.5323 42.2671 54.1092 41.9562 53.7983L37.9202 49.7623L37.9182 49.7585Z" fill="white"/>
<path d="M33.2978 30L19.8239 39.0916C19.3065 39.4416 19 39.9986 19 40.5899V41.5068C19 41.8467 19.3674 42.088 19.713 41.9694L34 37.2898L33.2978 30Z" fill="white"/>
<path d="M52.2247 39.0747L39.6547 30L39 37.3015L52.329 41.9713C52.6543 42.0847 53 41.8479 53 41.5058V40.5827C53 39.9876 52.7117 39.427 52.2247 39.0747Z" fill="white"/>
</svg>
