<svg width="71" height="71" viewBox="0 0 71 71" fill="none" xmlns="http://www.w3.org/2000/svg">
<circle cx="35.5" cy="35.5" r="35.5" fill="#0660B4"/>
<path fill-rule="evenodd" clip-rule="evenodd" d="M21.7916 27.0371H28.2979V21.228C28.2979 20.5667 28.8165 20 29.5237 20H42.4891C43.1963 20 43.715 20.5667 43.715 21.228V27.0371H50.127C51.117 27.0371 51.9185 27.84 51.9185 28.8318V49.282C51.9185 50.2738 51.117 51.0767 50.127 51.0767H21.7916C20.8015 51.0767 20 50.2738 20 49.282V28.8318C20 27.84 20.8015 27.0371 21.7916 27.0371ZM30.1838 27.0371H41.7819C41.8291 26.9899 41.8291 26.8954 41.8291 26.8482V22.9282C41.8291 22.5504 41.499 22.2198 41.0747 22.2198H30.9381C30.5138 22.2198 30.1838 22.5504 30.1838 22.9282V26.8482C30.1838 26.8954 30.1838 26.9899 30.1838 27.0371Z" fill="white"/>
</svg>
