<svg width="71" height="71" viewBox="0 0 71 71" fill="none" xmlns="http://www.w3.org/2000/svg">
<circle cx="35.5" cy="35.5" r="35.5" fill="#0660B4"/>
<path d="M52 32.3039H51.5703V30.038H51.3086V29.491H50.9534V28.7878H50.4992C50.5024 28.7685 50.5049 28.7492 50.5049 28.7293V27.3618C50.5049 27.1981 50.4027 27.0606 50.2619 27.0112V22.9275H50.0375V27.0114C49.8969 27.0608 49.7947 27.1981 49.7947 27.362V28.7295C49.7947 28.7494 49.7977 28.7689 49.8004 28.788H49.346V29.4912H48.991V30.0382H48.7293V32.3041H48.2994V34.2185H47.1738V43.4026H45.649V27.5896L41.9486 24.9638V21H41.7243V24.8045L41.5748 24.6984V40.8211H40.9394V37.383H39.647C39.6057 37.2258 39.4694 37.1095 39.3058 37.1095C39.1424 37.1095 39.0059 37.2258 38.9647 37.383H38.5471V36.9534H35.7811V37.383H35.4072V43.4026H35.0333V39.7794H34.0167V32.4604H33.5868V32.0308H33.3251V31.4839H32.9701V30.8588H32.496C32.5121 30.8164 32.5216 30.7705 32.5216 30.722V29.3546C32.5216 29.1494 32.3626 28.9835 32.1666 28.9835C31.9705 28.9835 31.8114 29.1496 31.8114 29.3546V30.722C31.8114 30.7705 31.8208 30.8164 31.837 30.8588H31.3628V31.4839H31.0076V32.0308H30.746V32.4604H30.3161V40.9774H30.136C30.104 40.8068 29.9605 40.678 29.7879 40.678C29.6151 40.678 29.4717 40.8068 29.4398 40.9774H29.0903V26.3524H28.8292V25.6883H26.549V26.3524H24.6054V40.3525H24.3624V40.0074C24.3624 39.8024 24.2035 39.6363 24.0072 39.6363C23.8757 39.6363 23.7621 39.7118 23.7007 39.8231V34.1014H23.2709V33.6718H23.0092V33.1249H22.654V32.4998H22.2055V32.1677C22.2055 31.9626 22.0465 31.7965 21.8503 31.7965C21.6542 31.7965 21.4953 31.9626 21.4953 32.1677V32.4998H21.0467V33.1249H20.6915V33.6718H20.4299V34.1014H20V49.6901H20.0023V50H51.9972V47.893H51.9995V32.3039H52Z" fill="white"/>
</svg>
