<svg width="71" height="71" viewBox="0 0 71 71" fill="none" xmlns="http://www.w3.org/2000/svg">
<circle cx="35.5" cy="35.5" r="35.5" fill="#0660B4"/>
<path d="M55.3931 53.8221H52.6307V25.6603C52.6307 25.4599 52.5244 25.2778 52.3494 25.1685C52.1807 25.0592 51.9619 25.047 51.7744 25.126L45.4808 27.9434V19.0296C45.4808 18.7745 45.3121 18.5499 45.0621 18.4709C39.0497 16.5097 32.9497 16.5097 26.9373 18.4709C26.6873 18.5499 26.5185 18.7745 26.5185 19.0296V27.9434L20.225 25.126C20.0375 25.047 19.8187 25.0592 19.65 25.1685C19.475 25.2778 19.3687 25.4599 19.3687 25.6603V53.8221H16.6062C16.2687 53.8221 16 54.0832 16 54.411C16 54.7328 16.2688 55 16.6062 55H55.3938C55.7313 55 56 54.7328 56 54.411C56 54.0831 55.7312 53.8221 55.3938 53.8221H55.3931ZM35.3932 45.4305V53.8221H32.4682V45.4305H35.3932ZM36.6057 45.4305H39.5306V53.8221H36.6057V45.4305ZM40.7368 45.4305H41.7806C42.1181 45.4305 42.3868 45.1694 42.3868 44.8416C42.3868 44.5137 42.1181 44.2526 41.7806 44.2526H30.2182C29.8807 44.2526 29.612 44.5137 29.612 44.8416C29.612 45.1694 29.8807 45.4305 30.2182 45.4305H31.262V53.8221H27.7308V37.5493C33.2183 35.6305 38.7807 35.6305 44.2683 37.5493V53.8221H40.7371L40.7368 45.4305ZM27.7305 31.7688V28.4899C33.2181 26.5651 38.7805 26.5651 44.268 28.4899V31.7688C38.7745 29.9411 33.2245 29.9411 27.7305 31.7688ZM27.7305 19.4547C33.2181 17.7545 38.7805 17.7545 44.268 19.4547V22.7032C38.7745 20.8816 33.2245 20.8816 27.7305 22.7032V19.4547ZM23.1741 53.8221V34.7805C23.1741 34.4526 23.4491 34.1915 23.7803 34.1915C24.1178 34.1915 24.3866 34.4526 24.3866 34.7805V53.8221H23.1741ZM47.6116 53.8221V34.7805C47.6116 34.4526 47.8804 34.1915 48.2179 34.1915C48.5491 34.1915 48.8241 34.4526 48.8241 34.7805V53.8221H47.6116Z" fill="white"/>
</svg>
