<svg width="71" height="71" viewBox="0 0 71 71" fill="none" xmlns="http://www.w3.org/2000/svg">
<circle cx="35.5" cy="35.5" r="35.5" fill="#0660B4"/>
<path d="M51 48.3592V17.4492C50.9928 16.9335 50.5455 17.0032 50.5382 17.0032H21.4618C21.4545 17.0032 21.0289 16.9683 21 17.4492V46.4459C21.0065 46.4459 21 46.4459 21.0065 46.4459H21L21.0505 54H51V48.3592ZM49.4271 17.8882L48.4387 18.8499H23.5613L22.5729 17.8882H49.4271ZM46.2597 47.3379V49.4216H25.7403V47.3379H46.2597ZM44.925 46.4459V40.1462C44.925 39.9999 44.8456 39.8605 44.7157 39.7769L41.2958 37.6166C41.1587 37.533 40.9784 37.526 40.8268 37.6026C40.6825 37.6793 40.5887 37.8256 40.5887 37.9929V46.4459H39.3838V29.8256C39.3838 29.5817 39.1818 29.3796 38.9221 29.3796C38.6695 29.3796 38.4675 29.5817 38.4675 29.8256V46.4459H37.4069V42.0487C37.4069 41.8048 37.1977 41.6027 36.9452 41.6027H33.5253C33.2727 41.6027 33.0635 41.8048 33.0635 42.0487V46.4459H31.8874V33.4075C31.8874 33.2472 31.8009 33.1009 31.6566 33.0172C31.5123 32.9406 31.3319 32.9406 31.1948 33.0242L27.5296 35.1706C27.3925 35.2472 27.3131 35.3936 27.3131 35.5469V46.4459H25.7403V21.5816H46.2597V46.4459H44.925ZM21.9235 18.5154L22.912 19.477V46.4459H21.9235V18.5154ZM21.9235 47.3379H22.912V51.5261L21.9235 52.4808V47.3379ZM22.5729 53.108L23.5613 52.1533H48.4387L49.4343 53.108H22.5729ZM50.0837 52.4808L49.088 51.5261V47.3379H50.0837V52.4808ZM50.0837 46.4459H49.088V19.477L50.0837 18.5154V46.4459Z" fill="white"/>
</svg>
