<svg width="71" height="71" viewBox="0 0 71 71" fill="none" xmlns="http://www.w3.org/2000/svg">
<circle cx="35.5" cy="35.5" r="35.5" fill="#0660B4"/>
<path d="M57.6242 26.5667C57.2456 25.0818 56.2493 24.5464 55.9902 23.4554C56.598 21.0815 54.1769 19.0309 54.1769 19.0309C54.1769 19.0309 52.7621 17.6773 52.4433 16.6166C51.6363 17.354 51.6761 18.3844 51.6761 18.3844C51.6761 18.3844 51.3175 18.6976 48.9662 16.4853C49.0459 18.8188 49.9724 19.2733 49.9724 19.2733C49.9724 19.2733 46.8241 23.0412 47.2226 21.324C47.6311 19.6067 46.7742 19.1117 46.7742 19.1117C47.4219 18.6167 48.1392 15.7479 45.6384 15.1014C43.3369 14.4448 42.6495 17.1924 42.6495 17.1924C33.2542 18.4854 35.2568 25.304 35.2568 25.304C35.2568 25.304 29.8069 22.2331 25.991 25.304C22.8426 27.7991 21.8463 29.9204 21.8662 31.7387C20.9994 32.8398 19.1861 34.5571 16.237 34.6379C11.8731 34.7591 10 36.4764 10 36.4764C10 36.4764 12.969 35.0015 13.5768 36.4764C14.1846 37.9512 10 37.2138 10 37.2138C10 37.2138 12.0624 39.7897 15.8783 38.3856C19.6942 36.9814 21.4477 35.3753 20.5411 36.7895C19.6344 38.2037 18.12 38.2037 18.12 38.2037C18.12 38.2037 22.733 39.1533 23.5898 36.0622C24.2873 37.0825 24.9747 37.9916 25.174 38.8199C25.5924 40.5271 25.8216 42.7899 25.9412 44.4061C26.0308 45.6688 26.7382 46.8002 27.8242 47.4265C27.8242 47.4265 32.5368 50.164 32.8058 52.8309C33.0748 55.5078 35.6254 54.9522 35.6254 54.9522C35.6254 54.9522 36.1535 54.6896 35.9442 53.7703C36.2132 53.5582 36.3627 53.2248 36.3428 52.8713C36.283 51.255 35.745 49.8307 35.1073 48.6892C35.7549 48.7902 36.5918 48.9518 37.1597 49.7196C38.2955 51.2348 42.0019 51.9318 42.0019 51.9318C42.0019 51.9318 40.3878 53.4875 42.1613 53.9824C43.9347 54.4774 45.4292 52.4268 45.4292 52.4268C45.4292 52.4268 45.5488 50.2954 46.9735 48.3761C47.0931 47.0022 46.2462 45.487 45.1901 44.4768C45.0705 43.6586 45.3495 42.6383 45.3495 42.6383C48.4979 41.4464 49.1455 34.4055 49.1455 34.4055C49.1455 34.4055 50.7994 31.87 51.9352 27.3647C54.685 28.0213 55.0836 30.1124 55.0836 30.1124C55.0836 30.1124 57.664 30.769 57.7537 28.0617C57.7936 27.4657 58.3615 27.4354 57.6242 26.5667ZM34.2704 51.0833C33.6228 50.3661 32.756 49.5175 31.6003 48.5276C25.3832 43.204 29.2589 38.0421 29.2589 38.0421C29.2589 38.0421 29.9065 37.4663 31.4608 38.8502C32.0984 39.9513 31.1818 42.3757 30.4445 43.9718C30.0161 44.9011 30.1954 46.0022 30.9128 46.7396C31.7995 47.6487 33.015 48.9316 34.0811 50.164C34.2405 50.356 34.2804 50.6893 34.2704 51.0833ZM39.8299 49.467C37.7376 48.073 37.8572 46.5982 36.4922 46.5982C35.3464 46.5982 34.7885 46.881 34.4298 47.578C34.3501 47.4669 34.2704 47.3558 34.1907 47.2447C32.766 45.386 33.284 42.6383 35.3365 41.5373C35.3863 41.507 35.4461 41.4767 35.4959 41.4565C39.4015 42.0423 41.6233 44.5071 41.6233 44.5071C41.6233 44.5071 41.7827 46.2244 41.8225 48.4367C41.8225 48.4367 41.9222 50.8509 39.8299 49.467ZM43.7255 50.6691C43.7255 50.6691 44.662 49.7903 44.7916 47.0224C45.0606 49.8004 43.7255 50.6691 43.7255 50.6691ZM46.017 19.5562C45.9373 19.3845 45.7381 19.3238 45.5787 19.4148L45.3694 19.5461C44.0842 19.7178 43.2074 17.0308 43.1177 16.7277C43.1875 16.95 43.7853 18.3642 47.0233 18.4147C46.9735 18.9299 46.017 19.5562 46.017 19.5562ZM51.0684 21.7785C51.0684 21.7785 52.4433 21.2836 52.5629 22.3947C51.8156 22.8897 51.0684 21.7785 51.0684 21.7785ZM56.1696 28.1021C55.4422 28.1021 55.6017 27.5466 55.6017 27.5466C56.1098 27.0617 56.4585 27.3445 56.4585 27.3445C56.4585 27.3445 56.8969 28.1021 56.1696 28.1021Z" fill="white"/>
</svg>
