<svg width="71" height="71" viewBox="0 0 71 71" fill="none" xmlns="http://www.w3.org/2000/svg">
<circle cx="35.5" cy="35.5" r="35.5" fill="#0660B4"/>
<path d="M37.4132 18.8716C38.0942 18.8716 38.8264 18.667 39.4543 18.4603C40.5014 18.1514 41.3911 17.8444 42.2296 18.4082C42.3871 18.5105 42.5957 18.5105 42.7532 18.4603C42.9107 18.358 43.015 18.2035 43.015 17.9989V13.8902C43.015 13.7357 42.9107 13.5813 42.7532 13.4789C41.4443 12.6564 40.1885 13.0677 39.0882 13.4268C38.041 13.7357 37.1514 14.0427 36.3128 13.4789C36.1554 13.3766 35.9467 13.3766 35.7893 13.4789C35.6318 13.5813 35.5275 13.7357 35.5275 13.9404V15.5834C35.4763 15.5333 35.4763 15.5834 35.4763 15.6356V22.3122H36.5235V18.7171C36.8385 18.8194 37.1003 18.8716 37.4132 18.8716ZM45.6327 54H56V30.8362H45.6327V54ZM48.9317 36.7948H52.7542V40.5444H48.9317V36.7948ZM48.9317 44.2942H52.7542V48.0438H48.9317V44.2942ZM16 54H26.3673V30.8362H16V54ZM19.2457 36.7948H23.0682V40.5444H19.2457V36.7948ZM19.2457 44.2942H23.0682V48.0438L19.2457 48.0418V44.2942ZM27.4145 54H32.2842L32.2821 44.2942H39.7163L39.7184 54H44.588L44.586 23.3393H27.4143L27.4145 54ZM37.8326 27.448H41.6551V31.1976H37.8326V27.448ZM37.8326 34.9454H41.6551V38.695H37.8326V34.9454ZM30.3983 27.448H34.2208V31.1976H30.3983V27.448ZM30.3983 34.9454H34.2208V38.695H30.3983V34.9454Z" fill="white"/>
</svg>
