<svg width="72" height="71" viewBox="0 0 72 71" fill="none" xmlns="http://www.w3.org/2000/svg">
<circle cx="36" cy="35.5" r="35.5" fill="#0660B4"/>
<path fill-rule="evenodd" clip-rule="evenodd" d="M44.8313 39.8289C47.5285 43.1322 52.5333 46.9341 49.6916 51.4015C47.0323 55.5819 42.4323 53.5927 38.3699 52.8842C35.7477 52.427 35.6167 52.5005 32.9932 52.9493C28.9329 53.6439 24.5781 55.5656 21.9293 51.4011C18.7195 46.3566 24.6156 43.5277 27.1325 39.7354C29.4556 36.2346 30.7674 29.4895 36.0657 29.4895C42.1021 29.4899 41.7474 36.0525 44.8313 39.8289ZM21.7831 26.5537C19.9697 26.5537 18.5 29.2668 18.5 31.8657C18.5 34.4645 20.0438 35.4693 21.8573 35.4693C23.6707 35.4693 25.0667 34.4645 25.0667 31.8657C25.0667 29.2668 23.5966 26.5537 21.7831 26.5537ZM50.2164 26.5537C48.403 26.5537 46.9333 29.2668 46.9333 31.8657C46.9333 34.4645 48.4771 35.4693 50.2906 35.4693C52.104 35.4693 53.5 34.4645 53.5 31.8657C53.5 29.2668 52.0299 26.5537 50.2164 26.5537ZM30.8503 17C29.0369 17 27.5672 19.7131 27.5672 22.312C27.5672 24.9108 28.9632 25.9156 30.7766 25.9156C32.5901 25.9156 34.1339 24.9108 34.1339 22.312C34.1339 19.7131 32.6638 17 30.8503 17ZM41.1497 17C42.9631 17 44.4328 19.7131 44.4328 22.312C44.4328 24.9108 43.0368 25.9156 41.2234 25.9156C39.4099 25.9156 37.8661 24.9108 37.8661 22.312C37.8661 19.7131 39.3362 17 41.1497 17Z" fill="white"/>
</svg>
